<svg width="24" height="24" viewBox="0 0 24 24" fill="none" xmlns="http://www.w3.org/2000/svg">
<path fill-rule="evenodd" clip-rule="evenodd" d="M11.9223 0C18.5011 0 23.834 5.37242 23.834 12C23.834 18.6276 18.5011 24 11.9223 24C5.34344 24 0.0105286 18.6276 0.0105286 12C0.0105286 5.37242 5.34344 0 11.9223 0ZM6.42598 5.44404H13.3066C14.4528 5.44404 15.3333 5.75814 15.9456 6.38383C16.5605 7.00953 16.8673 7.78473 16.8673 8.70694C16.8673 9.48215 16.649 10.148 16.2113 10.7046C15.9182 11.0728 15.4917 11.3668 14.9292 11.5804C15.7823 11.8065 16.4108 12.1973 16.8149 12.7463C17.2165 13.2991 17.4186 13.9927 17.4186 14.8257C17.4186 15.5066 17.2739 16.1173 16.9895 16.66C16.7014 17.2041 16.3111 17.6312 15.8122 17.9491C15.5054 18.1439 15.0402 18.2883 14.4166 18.3763C13.5885 18.4957 13.041 18.556 12.7691 18.556H6.42598V5.44404V5.44404ZM10.1338 10.5878H11.7314C12.3039 10.5878 12.703 10.4785 12.93 10.2611C13.1545 10.0413 13.2655 9.72715 13.2655 9.31756C13.2655 8.93561 13.1545 8.63658 12.93 8.42299C12.703 8.20689 12.3126 8.10009 11.7564 8.10009H10.1338V10.5878ZM10.1338 15.7378H12.0083C12.6419 15.7378 13.0871 15.616 13.3453 15.3684C13.6059 15.1222 13.7357 14.7892 13.7357 14.3708C13.7357 13.9826 13.6084 13.671 13.3515 13.4361C13.0934 13.2011 12.6444 13.0818 11.9996 13.0818H10.1338V15.7378V15.7378Z" fill="#19B03C"/>
</svg>
