<svg width="24" height="24" viewBox="0 0 24 24" fill="none" xmlns="http://www.w3.org/2000/svg">
<path fill-rule="evenodd" clip-rule="evenodd" d="M11.9815 0C18.5604 0 23.8933 5.37242 23.8933 12C23.8933 18.6276 18.5604 24 11.9815 24C5.4027 24 0.0697937 18.6276 0.0697937 12C0.0697937 5.37242 5.4027 0 11.9815 0ZM11.2432 9.73092C11.4191 10.785 11.3891 12.3053 11.979 13.2928C12.0576 13.4235 12.1449 13.5454 12.2459 13.6547C13.2125 14.6963 13.9483 13.2514 14.3424 12.5151C14.6817 11.8769 14.986 11.211 15.0396 10.6041C15.0695 10.2586 15.0533 9.98471 14.9935 9.76861C14.8251 9.15422 14.3063 9.00848 13.4944 9.03738C13.3908 9.04115 13.2823 9.04743 13.1701 9.05622C13.9084 6.74442 16.081 5.7795 16.7233 5.68024C17.5127 5.55837 18.6651 5.5835 19.2064 6.27327C19.3149 6.41147 19.3922 6.56224 19.4459 6.72181H19.4471C19.5855 7.13014 19.5656 7.59376 19.4845 8.04984C19.3124 8.96451 18.17 12.1646 16.0997 14.9903C15.1943 16.1839 14.1366 17.3573 12.7797 18.1665C12.2784 18.4655 11.2881 18.8424 10.6296 18.561C10.1694 18.365 9.81644 17.9529 9.53333 17.4365V17.4352C9.02324 16.5017 8.74762 15.2265 8.50816 14.2578C8.28741 13.3707 8.07913 12.5289 7.80974 11.7563C7.6526 11.3039 7.55657 10.8466 7.37448 10.4106H7.37323C7.3221 10.2875 7.26473 10.1669 7.19614 10.0488C6.67856 9.16805 5.93649 10.0149 5.15825 9.89928C4.94748 9.86912 4.84771 9.71458 4.7442 9.54999C4.68558 9.45702 4.62571 9.36028 4.5434 9.28112V9.19694C5.67458 8.28856 6.67108 7.18668 7.97811 6.41399C8.38843 6.17024 9.08685 5.90891 9.65307 6.07601C10.0971 6.20668 10.4737 6.73814 10.6932 7.2583L10.6945 7.25955C10.7331 7.35253 10.768 7.44676 10.7967 7.53722C11.015 8.22574 11.1322 9.06125 11.2432 9.73092V9.73092Z" fill="#19B03C"/>
</svg>
