<svg width="25" height="24" viewBox="0 0 25 24" fill="none" xmlns="http://www.w3.org/2000/svg">
<path fill-rule="evenodd" clip-rule="evenodd" d="M12.1973 0C18.7762 0 24.1091 5.37242 24.1091 12C24.1091 18.6276 18.7762 24 12.1973 24C5.61852 24 0.285614 18.6276 0.285614 12C0.285614 5.37242 5.61852 0 12.1973 0ZM17.9306 19.1817H6.89936C5.98643 19.1817 5.24437 18.4341 5.24437 17.5131V6.40142C5.24437 5.48173 5.98643 4.73542 6.89936 4.73542H17.9306C18.8448 4.73542 19.5843 5.48173 19.5843 6.40142V17.5131C19.5843 18.4341 18.8448 19.1817 17.9306 19.1817ZM12.4156 9.17935C10.8916 9.17935 9.6581 10.4232 9.6581 11.9573C9.6581 13.4926 10.8916 14.7365 12.4156 14.7365C13.9384 14.7365 15.1731 13.4926 15.1731 11.9573C15.1731 10.4232 13.9384 9.17935 12.4156 9.17935ZM17.9306 6.95676C17.9306 6.65019 17.6836 6.40142 17.3781 6.40142H15.7243C15.42 6.40142 15.1731 6.65019 15.1731 6.95676V8.62402C15.1731 8.93058 15.42 9.17935 15.7243 9.17935H17.3781C17.6836 9.17935 17.9306 8.93058 17.9306 8.62402V6.95676ZM17.9306 10.8466H16.6822C16.7732 11.2022 16.8268 11.5741 16.8268 11.9573C16.8268 14.4136 14.8513 16.4025 12.4156 16.4025C9.97863 16.4025 8.00311 14.4136 8.00311 11.9573C8.00311 11.5741 8.05673 11.2022 8.14778 10.8466H6.89936V16.9578C6.89936 17.2656 7.1463 17.5131 7.45185 17.5131H17.3781C17.6836 17.5131 17.9306 17.2656 17.9306 16.9578V10.8466V10.8466Z" fill="#19B03C"/>
</svg>
