<svg width="27" height="29" viewBox="0 0 27 29" fill="none" xmlns="http://www.w3.org/2000/svg">
<path d="M5.43715 28.2849L1.38816 25.373C-0.549736 23.9824 -0.115467 21.9039 0.642622 20.8521L14.5116 1.55099C14.6798 1.32005 14.9308 1.1594 15.212 1.10919L21.2491 0.125184C22.8857 -0.1409 25.5089 0.541882 25.9934 3.53909L26.9849 9.56615C27.0326 9.85482 26.9649 10.141 26.7942 10.3744L14.1803 27.9209C13.8364 28.4029 13.1661 28.5158 12.6792 28.1644C12.1947 27.823 12.0842 27.1402 12.4281 26.6633L24.781 9.4808L23.8672 3.88801C23.5735 2.10575 22.0423 2.18859 21.5854 2.25888L16.0077 3.17009L2.39727 22.1097C2.12115 22.5089 1.93288 23.1138 2.64076 23.6184L6.69227 26.5328C7.09139 26.8039 7.69636 26.9946 8.20091 26.2843L16.8286 14.2753C16.8135 13.5398 16.6679 12.7039 16.1383 12.3249C16.1332 12.3249 16.1257 12.3174 16.1257 12.3174C15.5157 11.8881 14.4765 12.0638 13.9368 12.2119L6.57931 22.4537C6.23039 22.9381 5.55514 23.041 5.07066 22.7047C4.5887 22.3457 4.47574 21.6755 4.82717 21.1885L12.3905 10.6606C12.506 10.4924 12.6792 10.3594 12.8699 10.2891C13.1436 10.1786 15.5709 9.285 17.3683 10.5426C18.4979 11.3258 19.0451 12.724 18.9899 14.6619C18.9823 14.8728 18.9121 15.0836 18.7865 15.2593L9.95556 27.5419C8.56741 29.4773 6.49647 29.043 5.43715 28.2849Z" fill="#7D7D7E"/>
</svg>
