<svg width="24" height="24" viewBox="0 0 24 24" fill="none" xmlns="http://www.w3.org/2000/svg">
<path fill-rule="evenodd" clip-rule="evenodd" d="M12.0857 0C18.5757 0 23.8366 5.37242 23.8366 12C23.8366 18.6276 18.5757 24 12.0857 24C5.59564 24 0.334717 18.6276 0.334717 12C0.334717 5.37242 5.59564 0 12.0857 0ZM17.7415 19.1817H6.85919C5.95858 19.1817 5.22654 18.4341 5.22654 17.5131V6.40142C5.22654 5.48173 5.95858 4.73542 6.85919 4.73542H17.7415C18.6434 4.73542 19.373 5.48173 19.373 6.40142V17.5131C19.373 18.4341 18.6434 19.1817 17.7415 19.1817ZM12.301 9.17935C10.7975 9.17935 9.5807 10.4232 9.5807 11.9573C9.5807 13.4926 10.7975 14.7365 12.301 14.7365C13.8032 14.7365 15.0212 13.4926 15.0212 11.9573C15.0212 10.4232 13.8032 9.17935 12.301 9.17935ZM17.7415 6.95676C17.7415 6.65019 17.4979 6.40142 17.1965 6.40142H15.5651C15.2649 6.40142 15.0212 6.65019 15.0212 6.95676V8.62402C15.0212 8.93058 15.2649 9.17935 15.5651 9.17935H17.1965C17.4979 9.17935 17.7415 8.93058 17.7415 8.62402V6.95676ZM17.7415 10.8466H16.51C16.5998 11.2022 16.6527 11.5741 16.6527 11.9573C16.6527 14.4136 14.7038 16.4025 12.301 16.4025C9.8969 16.4025 7.94804 14.4136 7.94804 11.9573C7.94804 11.5741 8.00094 11.2022 8.09076 10.8466H6.85919V16.9578C6.85919 17.2656 7.1028 17.5131 7.40423 17.5131H17.1965C17.4979 17.5131 17.7415 17.2656 17.7415 16.9578V10.8466Z" fill="white"/>
</svg>
