<svg width="65" height="65" viewBox="0 0 65 65" fill="none" xmlns="http://www.w3.org/2000/svg">
<circle cx="32.1927" cy="32.1927" r="30.6927" fill="#19B03C" stroke="white" stroke-width="3"/>
<path d="M48.702 23.9633H15.9015C15.3253 23.9633 14.8582 24.4396 14.8582 25.0271V48.2871C14.8582 48.8746 15.3253 49.3509 15.9015 49.3509H48.702C49.2782 49.3509 49.7452 48.8746 49.7452 48.2871V25.0271C49.7452 24.4396 49.2782 23.9633 48.702 23.9633Z" fill="#FEFEFE"/>
<path d="M35.4623 25.6346H30.0376C29.3123 25.6346 28.7244 26.1109 28.7244 26.6984V26.6999C28.7244 27.2874 29.3123 27.7636 30.0376 27.7636H35.4623C36.1876 27.7636 36.7755 27.2874 36.7755 26.6999V26.6984C36.7755 26.1109 36.1876 25.6346 35.4623 25.6346Z" fill="#00A800"/>
<path fill-rule="evenodd" clip-rule="evenodd" d="M36.0287 27.1548L34.0918 27.3074L31.706 23.0507L34.24 22.898L36.0287 27.1548Z" fill="#00A800"/>
<path d="M23.8821 8H19.5521L30.5515 26.6661H34.8815L23.8821 8Z" fill="#FEFEFE"/>
<path fill-rule="evenodd" clip-rule="evenodd" d="M45.7923 8.00027H41.4622L33.1924 22.0362L35.3567 25.7094L45.7923 8.00027Z" fill="#FEFEFE"/>
</svg>
