<svg width="229" height="64" viewBox="0 0 229 64" fill="none" xmlns="http://www.w3.org/2000/svg">
<path fill-rule="evenodd" clip-rule="evenodd" d="M41.786 22.4155C48.8176 17.4072 54.1251 19.4111 57.067 22.3628C60.7483 26.0572 59.4692 33.6906 55.0265 37.2663C51.5013 40.1023 46.357 41.8982 41.5468 42.011C42.155 45.6527 44.7366 48.0082 48.4092 47.9687C50.6524 47.9452 53.6876 46.4994 54.7523 43.7938C56.7622 45.3876 57.1326 48.912 55.6085 50.9497C54.71 52.1523 53.0983 53.2729 50.6889 53.5952C44.8664 54.376 38.1864 51.8388 35.6515 45.3436C32.6644 37.6926 35.6646 26.7764 41.786 22.4155ZM41.1399 39.0066C40.9109 33.1296 42.7953 27.0914 46.7173 25.0303C52.2159 22.1416 54.0828 29.7677 51.6092 32.9552C49.6533 35.4733 46.8033 37.8157 41.1399 39.0066Z" fill="#FEFEFE"/>
<path d="M63.9878 18.8779C64.6762 15.8632 70.4651 14.5653 72.7229 15.8105C70.5307 23.7383 69.1101 32.1057 68.2758 34.6355C70.0377 30.5177 72.4312 21.8487 78.0932 21.8487C85.7927 21.8487 82.8057 31.5505 81.8591 35.3298C84.3196 29.8029 86.8604 21.3228 92.6288 22.0845C97.3355 22.7041 96.8498 28.3278 95.6538 34.4802C94.7335 39.2088 93.3945 44.2509 93.6658 47.5761C93.8875 50.2861 94.5978 52.3399 95.8668 53.6143C97.0088 54.7627 98.6175 55.2681 100.522 55.2579C101.255 59.1046 96.1322 61.0602 92.3225 58.9816C89.9101 57.6632 88.3291 54.6499 88.1249 49.7177C87.788 41.598 91.4182 33.676 89.633 31.9108C88.4429 30.7345 86.188 32.8322 85.0416 35.4309C82.2222 41.8148 82.2193 44.7108 79.8944 48.4755C78.3805 50.9263 73.1706 52.0732 73.5776 48.7187C74.1129 45.7172 74.9369 39.5574 76.0366 34.7234C76.8549 31.1227 76.9147 28.9606 74.8669 29.4865C72.0782 30.2028 67.1907 41.4193 66.1945 50.1762C65.843 53.2598 59.0419 55.6988 59.2155 51.5562C59.3686 47.9247 60.0118 42.3802 60.8359 36.6907C61.8073 29.9875 63.0295 23.0835 63.9878 18.8779Z" fill="#FEFEFE"/>
<path d="M120.252 35.3225C117.733 34.8098 115.809 31.4069 116.966 28.3761C118.248 25.0171 122.225 24.0532 124.221 27.8912C128.78 36.6584 124.695 50.6069 118.545 56.7637C116.342 58.9698 113.836 60.1431 111.052 60.1138C103.635 60.0333 98.9705 52.4716 98.7284 44.0706C98.5679 38.5217 99.831 32.6623 102.669 28.1402C105.999 22.8389 111.911 19.8359 117.205 20.8774C117.942 23.9536 116.622 27.4591 113.872 28.8814C111.113 29.7677 109.042 32.3971 107.754 35.6784C106.548 38.7488 106.027 42.389 106.263 45.704C106.615 50.6274 108.229 54.7158 111.149 55.23C114.955 55.8994 117.389 53.0136 118.811 49.0893C120.434 44.6082 120.738 38.7737 120.252 35.3225Z" fill="#FEFEFE"/>
<path d="M130.004 25.9458C130.329 23.3735 131.83 21.9921 133.573 21.3227C136.001 20.3896 138.902 20.8334 139.761 21.3608C138.981 22.4506 136.933 34.4318 136.077 37.1798C136.864 35.337 138.047 32.0748 139.792 29.4688C142.362 25.6308 146.065 23.6137 148.661 24.2641C150.718 24.7783 152.078 26.9697 151.631 31.2559C151.222 35.1627 148.695 41.4031 148.279 46.9637C147.77 53.787 150.942 55.2944 154.701 54.5707C155.181 57.4653 153.591 59.4883 151.378 59.9951C150.026 60.3057 148.441 60.0508 146.955 59.084C140.995 55.205 142.699 47.1629 144.15 41.3899C146.225 33.1266 142.788 32.5377 139.887 36.6789C138.721 38.34 137.651 40.6472 136.714 43.0627C134.656 48.3758 134.207 52.0614 132.827 57.1562C131.878 60.6587 125.562 60.9839 126.028 57.3144L130.004 25.9458Z" fill="#FEFEFE"/>
<path d="M172.614 54.3612C170.351 58.6576 167.321 60.8125 163.621 60.5503C157.985 60.1489 154.934 55.2782 153.81 49.5476C152.335 42.0212 154.629 32.7237 159.763 27.5278C162.109 25.1547 165.667 23.3925 169.045 23.766C171.211 24.0048 173.646 25.1225 174.508 27.5175L175.164 23.1156C178.446 21.1629 182.907 23.4862 182.446 27.0414C181.71 32.7412 180.614 37.6456 179.69 43.1901C179.07 46.9021 178.096 51.9559 180.352 54.496C181.288 55.5521 182.699 56.5145 185.092 56.0868C185.137 59.3666 183.021 60.9077 180.136 60.937C177.201 60.9677 173.908 58.9946 172.614 54.3612ZM173.643 36.7564C173.841 33.2173 171.166 31.3569 168.599 31.3965C165.236 31.4492 161.654 34.2823 159.991 40.6984C158.356 47.0046 159.661 53.9715 163.739 55.4496C167.342 56.7562 171.698 52.2943 172.372 46.8274L173.643 36.7564Z" fill="#FEFEFE"/>
<path d="M155.149 23.23C150.92 23.1743 144.579 21.3754 142.878 18.3944C141.82 16.5414 142.147 13.3978 143.699 9.89529C148.397 12.6038 155.353 14.7909 164.861 13.6497C177.651 12.1146 195.105 1.70523 205.854 15.2904C209.727 20.1845 211.241 28.0582 210.284 35.4733C209.312 43.0115 205.263 50.6874 198.7 53.3725C188.531 57.5313 182.957 48.1635 183.386 39.0036C183.547 35.5334 184.509 31.7467 186.672 28.1417C190.417 21.894 199.3 19.9897 202.268 23.6504C203.271 24.8853 203.984 26.646 203.542 29.0865C203.044 31.8478 201.57 32.57 201.269 31.6866C199.838 27.4781 196.75 27.4459 193.921 29.8687C190.319 32.9523 190.057 38.8601 191.378 43.4451C192.94 48.8666 197.576 51.269 202.495 44.3167C207.39 37.3996 208.233 24.1543 201.422 18.2113C195.64 13.1649 187.297 14.8026 178.552 17.4979C170.537 19.9662 162.183 23.3223 155.149 23.23Z" fill="#FEFEFE"/>
<path d="M217.34 28.8098C217.626 24.4401 221.889 24.9205 222.427 28.0466C222.597 29.0236 222.324 30.1399 221.45 31.0715C222.592 32.2317 223.779 32.7371 224.86 32.7371C227.194 32.7385 229.026 30.3889 228.797 27.1896C228.556 23.8395 226.112 20.2315 220.884 20.3179C216.745 20.3868 213.615 22.7335 212.528 26.0177C209.438 35.3548 217.455 38.9188 215.728 46.3764C215.076 49.1904 213.123 51.4888 210.462 53.2012C204.69 56.9132 195.583 57.8756 189.157 55.3883C187.245 59.8649 193.102 61.4338 199.036 61.6477C205.326 61.8732 212.606 61.1394 217.937 57.2047C220.015 55.671 221.659 53.689 222.706 51.4727C227.825 40.6356 216.868 36.0462 217.34 28.8098Z" fill="#FEFEFE"/>
<path d="M26.5167 53.6831C24.4383 57.6412 18.3286 61.0001 12.6885 61.2857C9.10049 61.4688 5.35353 60.1886 3.08407 58.2315C0.358083 55.8804 0.00366169 52.5537 2.35772 49.6166C5.65399 45.5033 14.3293 42.2923 21.7984 45.9735C23.5909 40.8816 24.1787 30.607 25.2887 25.0025C17.91 26.69 10.3038 25.9415 4.14442 21.9512C2.00622 20.5669 4.07732 14.9403 5.04141 13.5062C10.9426 19.3217 18.5517 20.6152 26.1857 19.7905C27.386 15.1307 29.4994 9.1951 33.1224 4.96749C37.6249 -0.286981 44.2743 -1.00916 48.4398 1.10904C51.4605 2.64422 53.1757 5.67356 51.8236 9.54813C50.1069 14.4672 40.2648 19.8666 33.9231 22.2983C32.4179 30.7579 31.607 43.8392 28.9087 48.956C38.1704 54.4917 51.0433 56.6055 63.0047 55.6343C70.8151 55.0015 77.8817 52.9814 83.4663 49.3998C84.2904 50.2641 84.9059 51.5502 85.3055 52.914C86.627 57.4361 83.9798 60.0025 79.9396 61.4103C72.1103 64.1393 61.7693 64.6461 51.7332 63.2384C42.2017 61.901 33.0947 58.2183 26.5167 53.6831ZM34.244 18.1542C39.5239 16.0785 43.37 12.409 44.6929 9.45584C46.6882 4.98068 44.0832 2.42156 41.6358 3.17596C37.6599 4.40352 35.0141 13.0536 34.244 18.1542ZM20.388 49.9623C14.8529 46.3807 6.89811 49.8114 6.4343 52.9917C6.03612 55.7266 10.1462 57.253 14.0405 56.1558C16.4281 55.4834 19.2518 52.7485 20.388 49.9623Z" fill="#FEFEFE"/>
</svg>
