<svg width="178" height="68" viewBox="0 0 178 68" fill="none" xmlns="http://www.w3.org/2000/svg">
<path d="M4.70996 62.1045V65H4.10938V57.8906H6.53125C7.27018 57.8906 7.85286 58.0794 8.2793 58.457C8.70898 58.8346 8.92383 59.3538 8.92383 60.0146C8.92383 60.682 8.71712 61.1979 8.30371 61.5625C7.89355 61.9238 7.29785 62.1045 6.5166 62.1045H4.70996ZM4.70996 61.5967H6.53125C7.11393 61.5967 7.55827 61.4583 7.86426 61.1816C8.17025 60.9049 8.32324 60.5192 8.32324 60.0244C8.32324 59.5329 8.17025 59.1423 7.86426 58.8525C7.56152 58.5596 7.13021 58.4098 6.57031 58.4033H4.70996V61.5967ZM13.9355 63.0078H10.708L9.97559 65H9.3457L12.0361 57.8906H12.6074L15.2979 65H14.6729L13.9355 63.0078ZM10.8936 62.4951H13.7451L12.3193 58.623L10.8936 62.4951ZM21.1006 58.4033H17.4189V60.9766H19.1816C19.6667 60.9766 20.0866 61.0579 20.4414 61.2207C20.7962 61.3802 21.0664 61.6113 21.252 61.9141C21.4408 62.2135 21.5352 62.5684 21.5352 62.9785C21.5352 63.6068 21.3252 64.1016 20.9053 64.4629C20.4854 64.821 19.9043 65 19.1621 65H16.8135V57.8906H21.1006V58.4033ZM17.4189 61.4893V64.4922H19.1768C19.7269 64.4922 20.1566 64.3571 20.4658 64.0869C20.7751 63.8135 20.9297 63.4408 20.9297 62.9688C20.9297 62.5195 20.7799 62.1631 20.4805 61.8994C20.181 61.6325 19.7611 61.4958 19.2207 61.4893H17.4189ZM28.8809 61.8311C28.8809 62.4854 28.7669 63.0599 28.5391 63.5547C28.3145 64.0495 27.9922 64.4303 27.5723 64.6973C27.1523 64.9642 26.6673 65.0977 26.1172 65.0977C25.2871 65.0977 24.6165 64.8014 24.1055 64.209C23.5944 63.6133 23.3389 62.8109 23.3389 61.8018V61.0693C23.3389 60.4215 23.4528 59.8486 23.6807 59.3506C23.9118 58.8493 24.2373 58.4652 24.6572 58.1982C25.0771 57.9281 25.5605 57.793 26.1074 57.793C26.6543 57.793 27.1361 57.9248 27.5527 58.1885C27.9727 58.4521 28.2965 58.8249 28.5244 59.3066C28.7523 59.7884 28.8711 60.3467 28.8809 60.9814V61.8311ZM28.2803 61.0596C28.2803 60.2035 28.0866 59.5329 27.6992 59.0479C27.3118 58.5628 26.7812 58.3203 26.1074 58.3203C25.4466 58.3203 24.9193 58.5645 24.5254 59.0527C24.1348 59.5378 23.9395 60.2165 23.9395 61.0889V61.8311C23.9395 62.6742 24.1348 63.3431 24.5254 63.8379C24.916 64.3294 25.4466 64.5752 26.1172 64.5752C26.7975 64.5752 27.3281 64.3327 27.709 63.8477C28.0898 63.3594 28.2803 62.6807 28.2803 61.8115V61.0596ZM35.7432 57.8906V65H35.1377V61.7676C34.4704 61.9531 33.8291 62.0459 33.2139 62.0459C32.4066 62.0459 31.8109 61.8717 31.4268 61.5234C31.0426 61.1751 30.8457 60.6396 30.8359 59.917V57.8906H31.4414V59.8828C31.4447 60.459 31.5863 60.8789 31.8662 61.1426C32.1494 61.403 32.5986 61.5332 33.2139 61.5332C33.8356 61.5332 34.4769 61.4404 35.1377 61.2549V57.8906H35.7432ZM42.7275 57.8906H43.3281V65H42.7275V58.916L38.6797 65H38.0742V57.8906H38.6797V63.9697L42.7275 57.8906ZM49.5801 61.5918H46.2549V64.4922H50.0781V65H45.6543V57.8906H50.0537V58.4033H46.2549V61.084H49.5801V61.5918ZM55.3799 62.1045V65H54.7793V57.8906H57.2012C57.9401 57.8906 58.5228 58.0794 58.9492 58.457C59.3789 58.8346 59.5938 59.3538 59.5938 60.0146C59.5938 60.682 59.387 61.1979 58.9736 61.5625C58.5635 61.9238 57.9678 62.1045 57.1865 62.1045H55.3799ZM55.3799 61.5967H57.2012C57.7839 61.5967 58.2282 61.4583 58.5342 61.1816C58.8402 60.9049 58.9932 60.5192 58.9932 60.0244C58.9932 59.5329 58.8402 59.1423 58.5342 58.8525C58.2314 58.5596 57.8001 58.4098 57.2402 58.4033H55.3799V61.5967ZM65.3672 61.5918H62.042V64.4922H65.8652V65H61.4414V57.8906H65.8408V58.4033H62.042V61.084H65.3672V61.5918ZM69.2363 61.665H68.2598V65H67.6592V57.8906H68.2598V61.1523H69.207L71.9561 57.8906H72.7129L69.793 61.3867L72.9277 65H72.1807L69.2363 61.665ZM79.7314 57.8906V65H79.1309V58.4033H76.1279L75.9619 61.3428C75.8968 62.3942 75.7959 63.1592 75.6592 63.6377C75.5257 64.113 75.3337 64.458 75.083 64.6729C74.8356 64.8844 74.4987 64.9935 74.0723 65H73.8184V64.4922L74.0137 64.4873C74.349 64.471 74.6012 64.3652 74.7705 64.1699C74.9398 63.9746 75.07 63.6589 75.1611 63.2227C75.2555 62.7832 75.3288 62.1061 75.3809 61.1914L75.5566 57.8906H79.7314ZM85.9688 63.0078H82.7412L82.0088 65H81.3789L84.0693 57.8906H84.6406L87.3311 65H86.7061L85.9688 63.0078ZM82.9268 62.4951H85.7783L84.3525 58.623L82.9268 62.4951ZM89.6768 57.8906L92.2988 64.165L94.9307 57.8906H95.7314V65H95.1309V61.9043L95.1797 58.7305L92.5332 65H92.0693L89.4326 58.7549L89.4814 61.8848V65H88.8809V57.8906H89.6768ZM103.302 65H102.696V61.5918H98.6338V65H98.0332V57.8906H98.6338V61.084H102.696V57.8906H103.302V65ZM106.224 60.9766H107.986C108.471 60.9766 108.891 61.0579 109.246 61.2207C109.601 61.3802 109.871 61.6113 110.057 61.9141C110.245 62.2135 110.34 62.5684 110.34 62.9785C110.34 63.6068 110.13 64.1016 109.71 64.4629C109.29 64.821 108.709 65 107.967 65H105.623V57.8906H106.224V60.9766ZM106.224 61.4893V64.4922H107.981C108.532 64.4922 108.961 64.3571 109.271 64.0869C109.58 63.8135 109.734 63.4408 109.734 62.9688C109.734 62.5195 109.585 62.1631 109.285 61.8994C108.986 61.6325 108.566 61.4958 108.025 61.4893H106.224ZM112.112 65H111.512V57.8906H112.112V65ZM118.389 61.5918H115.063V64.4922H118.887V65H114.463V57.8906H118.862V58.4033H115.063V61.084H118.389V61.5918ZM124.188 62.1045V65H123.588V57.8906H126.01C126.749 57.8906 127.331 58.0794 127.758 58.457C128.188 58.8346 128.402 59.3538 128.402 60.0146C128.402 60.682 128.196 61.1979 127.782 61.5625C127.372 61.9238 126.776 62.1045 125.995 62.1045H124.188ZM124.188 61.5967H126.01C126.592 61.5967 127.037 61.4583 127.343 61.1816C127.649 60.9049 127.802 60.5192 127.802 60.0244C127.802 59.5329 127.649 59.1423 127.343 58.8525C127.04 58.5596 126.609 58.4098 126.049 58.4033H124.188V61.5967ZM134.176 61.5918H130.851V64.4922H134.674V65H130.25V57.8906H134.649V58.4033H130.851V61.084H134.176V61.5918ZM137.039 57.8906V64.4922H139.881V57.8906H140.481V64.4922H143.313V57.8906H143.914V65H136.434V57.8906H137.039ZM150.127 61.5918H146.802V64.4922H150.625V65H146.201V57.8906H150.601V58.4033H146.802V61.084H150.127V61.5918ZM157.663 65H157.058V61.5918H152.995V65H152.395V57.8906H152.995V61.084H157.058V57.8906H157.663V65ZM164.647 57.8906H165.248V65H164.647V58.916L160.6 65H159.994V57.8906H160.6V63.9697L164.647 57.8906ZM171.373 65V62.1045H169.327L167.774 65H167.125L168.8 61.9385C168.341 61.779 167.991 61.5381 167.75 61.2158C167.509 60.8936 167.389 60.4997 167.389 60.0342C167.389 59.3636 167.6 58.8395 168.023 58.4619C168.45 58.0811 169.049 57.8906 169.82 57.8906H171.979V65H171.373ZM167.989 60.0293C167.989 60.498 168.136 60.8757 168.429 61.1621C168.725 61.4486 169.132 61.5918 169.649 61.5918H171.373V58.4033H169.801C169.221 58.4033 168.774 58.5449 168.458 58.8281C168.146 59.1081 167.989 59.5085 167.989 60.0293Z" fill="black"/>
<path fill-rule="evenodd" clip-rule="evenodd" d="M31.9521 17.3452C37.4101 13.4697 41.53 15.0204 43.8136 17.3044C46.6711 20.1632 45.6782 26.07 42.2297 28.8369C39.4933 31.0314 35.5002 32.4212 31.7664 32.5084C32.2385 35.3264 34.2424 37.1491 37.0931 37.1185C38.8344 37.1004 41.1904 35.9816 42.0168 33.8879C43.5769 35.1212 43.8645 37.8485 42.6814 39.4252C41.984 40.3558 40.733 41.223 38.8627 41.4724C34.3432 42.0765 29.1579 40.1133 27.1902 35.0872C24.8716 29.1668 27.2004 20.7197 31.9521 17.3452ZM31.4505 30.1836C31.2728 25.6359 32.7355 20.9634 35.7798 19.3686C40.048 17.1333 41.4972 23.0344 39.5771 25.501C38.0589 27.4495 35.8466 29.262 31.4505 30.1836Z" fill="#1BB516"/>
<path d="M49.1856 14.6077C49.72 12.2749 54.2135 11.2706 55.9661 12.2341C54.2644 18.3688 53.1617 24.8435 52.5141 26.8011C53.8818 23.6148 55.7396 16.9065 60.1346 16.9065C66.1112 16.9065 63.7926 24.4139 63.0578 27.3384C64.9678 23.0616 66.94 16.4996 71.4176 17.089C75.0711 17.5685 74.6941 21.9201 73.7657 26.681C73.0513 30.34 72.012 34.2416 72.2226 36.8147C72.3947 38.9117 72.946 40.5009 73.931 41.4871C74.8175 42.3758 76.0662 42.7668 77.5448 42.7589C78.1131 45.7356 74.137 47.2488 71.1799 45.6403C69.3073 44.6202 68.08 42.2885 67.9215 38.4719C67.66 32.1888 70.4779 26.0586 69.0922 24.6927C68.1684 23.7825 66.4181 25.4057 65.5282 27.4166C63.3397 32.3565 63.3375 34.5975 61.5328 37.5107C60.3577 39.4071 56.3136 40.2946 56.6295 37.6988C57.045 35.3762 57.6847 30.6098 58.5383 26.8691C59.1734 24.0829 59.2199 22.4098 57.6303 22.8168C55.4656 23.371 51.6718 32.0505 50.8986 38.8267C50.6257 41.2128 45.3465 43.1001 45.4812 39.8945C45.6001 37.0845 46.0994 32.7941 46.7391 28.3914C47.4931 23.2044 48.4418 17.8621 49.1856 14.6077Z" fill="#1BB516"/>
<path d="M92.8594 27.3327C90.9042 26.936 89.4109 24.3028 90.3087 21.9575C91.3039 19.3583 94.3912 18.6125 95.94 21.5823C99.4791 28.3665 96.308 39.1599 91.5348 43.9241C89.8241 45.6312 87.8791 46.5392 85.7178 46.5165C79.9608 46.4542 76.3402 40.6029 76.1523 34.1021C76.0278 29.8083 77.0082 25.2742 79.2114 21.775C81.7961 17.6728 86.3847 15.349 90.4944 16.155C91.0661 18.5354 90.0415 21.2479 87.9074 22.3486C85.7654 23.0344 84.1577 25.069 83.158 27.6081C82.2218 29.984 81.8176 32.8008 82.001 35.366C82.2738 39.1758 83.5271 42.3395 85.7937 42.7373C88.7475 43.2554 90.637 41.0223 91.7409 37.9856C93.001 34.5181 93.2365 30.0033 92.8594 27.3327Z" fill="#1BB516"/>
<path d="M100.429 20.077C100.681 18.0865 101.846 17.0176 103.199 16.4996C105.084 15.7775 107.336 16.121 108.003 16.529C107.397 17.3724 105.808 26.6435 105.143 28.77C105.755 27.344 106.673 24.8197 108.027 22.8031C110.022 19.8333 112.896 18.2724 114.911 18.7757C116.508 19.1736 117.564 20.8693 117.216 24.186C116.899 27.2091 114.937 32.038 114.615 36.3408C114.22 41.6208 116.682 42.7872 119.6 42.2272C119.972 44.4671 118.738 46.0325 117.021 46.4247C115.971 46.665 114.74 46.4678 113.587 45.7196C108.961 42.7181 110.283 36.495 111.41 32.0278C113.021 25.6335 110.352 25.1778 108.1 28.3823C107.196 29.6677 106.365 31.4531 105.638 33.3222C104.041 37.4335 103.692 40.2855 102.621 44.2279C101.884 46.9382 96.9816 47.1898 97.3427 44.3503L100.429 20.077Z" fill="#1BB516"/>
<path d="M133.505 42.0652C131.748 45.3898 129.396 47.0573 126.524 46.8544C122.149 46.5438 119.781 42.7748 118.908 38.3404C117.763 32.5164 119.544 25.3219 123.529 21.3012C125.35 19.4649 128.112 18.1013 130.734 18.3903C132.415 18.5751 134.305 19.44 134.974 21.2933L135.484 17.8871C138.031 16.3761 141.494 18.1738 141.136 20.9249C140.565 25.3355 139.714 29.1305 138.997 33.4209C138.516 36.2933 137.759 40.204 139.511 42.1695C140.237 42.9868 141.332 43.7315 143.19 43.4005C143.225 45.9385 141.582 47.1309 139.343 47.1536C137.065 47.1774 134.509 45.6506 133.505 42.0652ZM134.303 28.4425C134.457 25.7039 132.38 24.2643 130.388 24.2949C127.777 24.3357 124.997 26.5279 123.706 31.4928C122.437 36.3726 123.45 41.7637 126.616 42.9074C129.412 43.9185 132.794 40.4658 133.317 36.2355L134.303 28.4425Z" fill="#1BB516"/>
<path d="M119.947 17.9755C116.665 17.9324 111.742 16.5404 110.422 14.2337C109.602 12.7998 109.855 10.3672 111.06 7.65696C114.706 9.75286 120.106 11.4452 127.486 10.5622C137.414 9.37426 150.962 1.31941 159.306 11.8317C162.312 15.6189 163.487 21.7116 162.745 27.4495C161.991 33.2826 158.848 39.2223 153.753 41.3001C145.86 44.5182 141.533 37.2692 141.866 30.1813C141.991 27.496 142.737 24.5658 144.416 21.7762C147.324 16.9417 154.218 15.4681 156.522 18.3008C157.301 19.2564 157.855 20.6189 157.512 22.5073C157.125 24.644 155.981 25.2028 155.747 24.5193C154.636 21.2627 152.239 21.2378 150.043 23.1126C147.248 25.4987 147.044 30.0702 148.07 33.6181C149.282 37.8133 152.88 39.6723 156.699 34.2926C160.498 28.9401 161.153 18.6907 155.866 14.092C151.378 10.187 144.902 11.4543 138.114 13.54C131.892 15.45 125.408 18.0469 119.947 17.9755Z" fill="#1BB516"/>
<path d="M168.222 22.2931C168.444 18.9118 171.753 19.2835 172.171 21.7025C172.302 22.4586 172.091 23.3223 171.412 24.0432C172.299 24.941 173.22 25.3321 174.059 25.3321C175.871 25.3332 177.293 23.515 177.115 21.0394C176.928 18.447 175.031 15.6551 170.973 15.722C167.76 15.7753 165.331 17.5912 164.487 20.1326C162.088 27.3577 168.311 30.1155 166.971 35.8863C166.465 38.0638 164.949 39.8423 162.883 41.1674C158.403 44.0398 151.334 44.7845 146.346 42.8598C144.861 46.3239 149.408 47.5379 154.014 47.7034C158.897 47.8779 164.547 47.31 168.685 44.2654C170.298 43.0786 171.574 41.5449 172.387 39.8299C176.361 31.444 167.855 27.8927 168.222 22.2931Z" fill="#1BB516"/>
<path d="M20.0996 41.5404C18.4863 44.6032 13.7437 47.2023 9.3657 47.4234C6.58062 47.5651 3.67213 46.5744 1.9105 45.06C-0.205481 43.2407 -0.480593 40.6664 1.34669 38.3937C3.90535 35.2108 10.6394 32.7261 16.4371 35.5746C17.8285 31.6345 18.2848 23.6839 19.1463 19.347C13.4188 20.6529 7.51464 20.0736 2.73358 16.9859C1.07385 15.9147 2.6815 11.5608 3.42985 10.4511C8.01052 14.9512 13.9169 15.9521 19.8426 15.3139C20.7744 11.7082 22.4148 7.11513 25.2271 3.84377C28.722 -0.222191 33.8835 -0.78102 37.1169 0.858061C39.4616 2.046 40.793 4.39013 39.7435 7.38831C38.411 11.1947 30.7712 15.3729 25.8486 17.2545C24.6803 23.8007 24.0508 33.9231 21.9563 37.8825C29.1455 42.1661 39.1378 43.8018 48.4226 43.0502C54.4852 42.5606 59.9705 40.9974 64.3055 38.2259C64.9451 38.8947 65.4229 39.89 65.7331 40.9453C66.7588 44.4445 64.704 46.4304 61.5679 47.5197C55.4906 49.6315 47.4636 50.0237 39.6733 48.9344C32.2747 47.8995 25.2056 45.0498 20.0996 41.5404ZM26.0977 14.0478C30.1961 12.4416 33.1816 9.60209 34.2084 7.3169C35.7572 3.85398 33.7352 1.8737 31.8354 2.45747C28.7492 3.40737 26.6955 10.1008 26.0977 14.0478ZM15.3423 38.6612C11.0458 35.8897 4.87107 38.5445 4.51105 41.0054C4.20197 43.1216 7.39237 44.3028 10.4152 43.4538C12.2685 42.9335 14.4604 40.8172 15.3423 38.6612Z" fill="#1BB516"/>
</svg>
