<svg width="24" height="24" viewBox="0 0 24 24" fill="none" xmlns="http://www.w3.org/2000/svg">
<path fill-rule="evenodd" clip-rule="evenodd" d="M12.2462 0C18.7362 0 23.9972 5.37242 23.9972 12C23.9972 18.6276 18.7362 24 12.2462 24C5.75616 24 0.495239 18.6276 0.495239 12C0.495239 5.37242 5.75616 0 12.2462 0ZM6.8241 5.44404H13.6119C14.7426 5.44404 15.6112 5.75814 16.2153 6.38383C16.8218 7.00953 17.1245 7.78473 17.1245 8.70694C17.1245 9.48215 16.9092 10.148 16.4773 10.7046C16.1882 11.0728 15.7674 11.3668 15.2125 11.5804C16.0541 11.8065 16.6742 12.1973 17.0728 12.7463C17.469 13.2991 17.6683 13.9927 17.6683 14.8257C17.6683 15.5066 17.5256 16.1173 17.2451 16.66C16.9608 17.2041 16.5758 17.6312 16.0836 17.9491C15.781 18.1439 15.322 18.2883 14.7069 18.3763C13.8899 18.4957 13.3498 18.556 13.0816 18.556H6.8241V5.44404ZM10.4819 10.5878H12.058C12.6227 10.5878 13.0164 10.4785 13.2403 10.2611C13.4618 10.0413 13.5713 9.72715 13.5713 9.31756C13.5713 8.93561 13.4618 8.63658 13.2403 8.42299C13.0164 8.20689 12.6313 8.10009 12.0826 8.10009H10.4819V10.5878ZM10.4819 15.7378H12.3311C12.9561 15.7378 13.3953 15.616 13.65 15.3684C13.9072 15.1222 14.0351 14.7892 14.0351 14.3708C14.0351 13.9826 13.9096 13.671 13.6562 13.4361C13.4015 13.2011 12.9586 13.0818 12.3225 13.0818H10.4819V15.7378Z" fill="white"/>
</svg>
