<svg width="25" height="24" viewBox="0 0 25 24" fill="none" xmlns="http://www.w3.org/2000/svg">
<path fill-rule="evenodd" clip-rule="evenodd" d="M12.4408 0C18.9308 0 24.1917 5.37242 24.1917 12C24.1917 18.6276 18.9308 24 12.4408 24C5.95074 24 0.689819 18.6276 0.689819 12C0.689819 5.37242 5.95074 0 12.4408 0ZM11.7124 9.73092C11.8859 10.785 11.8564 12.3053 12.4383 13.2928C12.5158 13.4235 12.6019 13.5454 12.7016 13.6547C13.6551 14.6963 14.381 13.2514 14.7698 12.5151C15.1045 11.8769 15.4047 11.211 15.4576 10.6041C15.4871 10.2586 15.4711 9.98471 15.412 9.76861C15.2459 9.15422 14.7341 9.00848 13.9332 9.03738C13.8311 9.04115 13.724 9.04743 13.6133 9.05622C14.3417 6.74442 16.4849 5.7795 17.1185 5.68024C17.8973 5.55837 19.0342 5.5835 19.5681 6.27327C19.6752 6.41147 19.7514 6.56224 19.8043 6.72181H19.8056C19.9421 7.13014 19.9225 7.59376 19.8425 8.04984C19.6727 8.96451 18.5457 12.1646 16.5034 14.9903C15.6101 16.1839 14.5668 17.3573 13.2282 18.1665C12.7336 18.4655 11.7567 18.8424 11.1071 18.561C10.6531 18.365 10.3049 17.9529 10.0256 17.4365V17.4352C9.52241 16.5017 9.25051 15.2265 9.01429 14.2578C8.79652 13.3707 8.59105 12.5289 8.32529 11.7563C8.17027 11.3039 8.07554 10.8466 7.89591 10.4106H7.89468C7.84423 10.2875 7.78764 10.1669 7.71997 10.0488C7.20938 9.16805 6.47733 10.0149 5.7096 9.89928C5.50167 9.86912 5.40325 9.71458 5.30113 9.54999C5.2433 9.45702 5.18424 9.36028 5.10304 9.28112V9.19694C6.21896 8.28856 7.202 7.18668 8.49139 6.41399C8.89618 6.17024 9.58516 5.90891 10.1437 6.07601C10.5817 6.20668 10.9533 6.73814 11.1698 7.2583L11.1711 7.25955C11.2092 7.35253 11.2437 7.44676 11.272 7.53722C11.4873 8.22574 11.6029 9.06125 11.7124 9.73092Z" fill="white"/>
</svg>
